<svg width="175" height="99" viewBox="0 0 175 99" fill="none" xmlns="http://www.w3.org/2000/svg">
<path d="M18.32 66.48C18.9333 67.5467 19.28 68.84 19.36 70.36V70.4C19.36 70.5867 19.36 70.7733 19.36 70.96C19.36 71.12 19.3467 71.28 19.32 71.44C19.16 72.72 18.7333 73.8933 18.04 74.96C17.3733 76.0267 16.5333 76.9333 15.52 77.68C14.5067 78.4267 13.3867 78.9733 12.16 79.32C10.9333 79.64 9.68 79.6933 8.4 79.48C8.42667 79.8533 8.44 80.2267 8.44 80.6C8.44 80.9467 8.44 81.4667 8.44 82.16C8.44 82.8267 8.44 83.7333 8.44 84.88C8.46667 86.0267 8.50667 87.5733 8.56 89.52V89.56C8.53333 89.56 8.50667 89.5733 8.48 89.6C8.48 89.6 8.46667 89.6 8.44 89.6C8.06667 89.7067 7.58667 89.7867 7 89.84C6.44 89.8667 5.84 89.8933 5.2 89.92C4.58667 89.92 3.97333 89.9067 3.36 89.88C2.74667 89.8533 2.21333 89.8133 1.76 89.76C1.68 87.8133 1.64 85.7067 1.64 83.44C1.64 81.1467 1.64 78.8 1.64 76.4C1.64 74 1.62667 71.5867 1.6 69.16C1.6 66.7333 1.56 64.4133 1.48 62.2C2.57333 61.9067 3.76 61.6933 5.04 61.56C6.34667 61.4267 7.64 61.4133 8.92 61.52C10.2267 61.6267 11.4933 61.8667 12.72 62.24C13.9467 62.5867 15.0267 63.12 15.96 63.84C16.92 64.5333 17.7067 65.4133 18.32 66.48ZM13.16 69.48C12.9733 69.16 12.7067 68.8933 12.36 68.68C11.6933 68.1467 10.92 67.8133 10.04 67.68C9.16 67.52 8.29333 67.5467 7.44 67.76C7.38667 67.76 7.34667 67.7733 7.32 67.8C7.34667 68.28 7.34667 68.7867 7.32 69.32C7.32 69.8533 7.32 70.3867 7.32 70.92C7.34667 71.4533 7.37333 71.9733 7.4 72.48C7.45333 72.96 7.54667 73.4 7.68 73.8H7.8C8.22667 73.7733 8.68 73.76 9.16 73.76C9.64 73.7333 10.1067 73.6933 10.56 73.64C11.04 73.5867 11.4933 73.4933 11.92 73.36C12.3733 73.2 12.76 72.96 13.08 72.64C13.2933 72.3467 13.44 72.0133 13.52 71.64C13.6267 71.2667 13.64 70.8933 13.56 70.52C13.5067 70.1467 13.3733 69.8 13.16 69.48ZM26.7628 71C26.7895 71.08 26.8028 71.2133 26.8028 71.4C26.9095 71.3467 27.1495 71.24 27.5228 71.08C27.9228 70.92 28.3095 70.7733 28.6828 70.64C29.1895 70.48 29.7628 70.36 30.4028 70.28C31.0428 70.1733 31.6428 70.1067 32.2028 70.08C32.7628 70.0533 33.2295 70.0533 33.6028 70.08C34.0028 70.08 34.2028 70.0933 34.2028 70.12C34.2028 71.0267 34.1895 71.8267 34.1628 72.52C34.1628 73.2133 34.1628 73.84 34.1628 74.4C34.1628 74.9333 34.1628 75.4267 34.1628 75.88C34.1628 76.3333 34.1761 76.76 34.2028 77.16L33.8428 77.04C33.7095 76.9867 33.5628 76.9467 33.4028 76.92C33.2695 76.8667 33.1361 76.8133 33.0028 76.76C32.6828 76.68 32.3495 76.6133 32.0028 76.56C31.6828 76.5067 31.5095 76.48 31.4828 76.48C30.7628 76.4 30.0961 76.36 29.4828 76.36C28.8961 76.36 28.3761 76.4533 27.9228 76.64C27.4961 76.8267 27.1628 77.12 26.9228 77.52C26.6828 77.92 26.5761 78.4933 26.6028 79.24C26.6295 80.1733 26.6561 81.0533 26.6828 81.88C26.7095 82.7067 26.7228 83.5467 26.7228 84.4C26.7228 85.2267 26.7228 86.08 26.7228 86.96C26.7495 87.8133 26.7628 88.7333 26.7628 89.72V89.88C26.3095 90.0133 25.8961 90.0933 25.5228 90.12C25.1495 90.1467 24.7628 90.1467 24.3628 90.12C23.9628 90.12 23.5228 90.1067 23.0428 90.08C22.5895 90.0533 22.0428 90.0667 21.4028 90.12C21.4028 86.84 21.3628 83.56 21.2828 80.28C21.2295 77 21.2561 73.6 21.3628 70.08C21.6828 70.1067 21.9495 70.1333 22.1628 70.16C22.3761 70.16 22.5761 70.16 22.7628 70.16C22.9495 70.16 23.1495 70.16 23.3628 70.16C23.5761 70.1333 23.8428 70.1067 24.1628 70.08C24.2695 70.08 24.4561 70.0667 24.7228 70.04C25.0161 70.0133 25.3095 69.9867 25.6028 69.96C25.9228 69.9333 26.1895 69.9333 26.4028 69.96C26.6428 69.96 26.7628 69.9867 26.7628 70.04C26.7628 70.2533 26.7628 70.4133 26.7628 70.52C26.7628 70.6267 26.7628 70.72 26.7628 70.8C26.7628 70.8533 26.7628 70.92 26.7628 71ZM36.0494 72.96C36.2094 72.4533 36.3294 72.0533 36.4094 71.76C36.596 71.36 36.8894 71.0133 37.2894 70.72C37.716 70.4267 38.196 70.1867 38.7294 70C39.2894 69.7867 39.876 69.64 40.4894 69.56C41.1294 69.48 41.7694 69.44 42.4094 69.44C42.9427 69.4933 43.4494 69.5067 43.9294 69.48C44.436 69.4267 44.9694 69.4267 45.5294 69.48C46.3827 69.5333 47.196 69.7067 47.9694 70C48.7427 70.2667 49.4094 70.6667 49.9694 71.2C50.3427 71.44 50.636 71.8267 50.8494 72.36C51.0627 72.8933 51.2227 73.52 51.3294 74.24C51.436 74.9333 51.5027 75.7067 51.5294 76.56C51.556 77.3867 51.5827 78.24 51.6094 79.12C51.5827 79.8933 51.5427 80.7733 51.4894 81.76C51.4627 82.7467 51.396 83.6933 51.2894 84.6C51.2094 85.5067 51.0894 86.32 50.9294 87.04C50.796 87.76 50.596 88.2533 50.3294 88.52C49.876 89.16 49.276 89.6133 48.5294 89.88C47.8094 90.1467 47.0227 90.3067 46.1694 90.36C45.316 90.44 44.436 90.44 43.5294 90.36C42.6227 90.3067 41.796 90.28 41.0494 90.28C39.6894 90.04 38.5427 89.4533 37.6094 88.52C36.8894 87.88 36.396 87.08 36.1294 86.12C35.8627 85.16 35.7027 84.16 35.6494 83.12C35.596 82.0533 35.5827 80.9867 35.6094 79.92C35.6627 78.8533 35.6494 77.88 35.5694 77C35.5694 76.52 35.5827 76.0533 35.6094 75.6C35.636 75.12 35.6894 74.6267 35.7694 74.12C35.796 73.8267 35.8894 73.44 36.0494 72.96ZM42.7694 75.6C42.2094 75.76 41.756 76.0533 41.4094 76.48C41.2494 76.5867 41.1294 76.8533 41.0494 77.28C40.9427 78.1333 40.8894 78.9867 40.8894 79.84C40.8894 80.6667 40.8627 81.5467 40.8094 82.48C40.7827 83.0933 40.9427 83.5733 41.2894 83.92C41.636 84.24 42.0494 84.4667 42.5294 84.6C43.036 84.7067 43.556 84.7333 44.0894 84.68C44.6227 84.6 45.0627 84.4667 45.4094 84.28C45.8627 84.0667 46.1694 83.6267 46.3294 82.96C46.436 82.1067 46.516 81.2533 46.5694 80.4C46.6494 79.52 46.6094 78.6933 46.4494 77.92C46.316 76.9867 45.9294 76.3067 45.2894 75.88C44.6494 75.4533 43.8094 75.36 42.7694 75.6ZM53.9391 78.96C53.9657 77.68 54.0057 76.52 54.0591 75.48V70.12C54.4857 70.1733 54.9257 70.1867 55.3791 70.16C55.8591 70.1333 56.3257 70.1067 56.7791 70.08C57.2324 70.0267 57.6591 69.9867 58.0591 69.96C58.4857 69.9333 58.8724 69.9467 59.2191 70C59.2991 70.64 59.3391 71.4133 59.3391 72.32C59.3391 73.2 59.3257 74.0933 59.2991 75C59.2991 75.88 59.2857 76.7333 59.2591 77.56C59.2324 78.36 59.2457 79 59.2991 79.48C59.2991 80.7867 59.2991 82.04 59.2991 83.24C59.3257 84.4133 59.3257 85.5867 59.2991 86.76C59.2991 87.9067 59.2457 89.0667 59.1391 90.24C59.0591 91.44 58.9124 92.68 58.6991 93.96C58.3524 94.7867 57.7791 95.44 56.9791 95.92C56.2057 96.4 55.3124 96.76 54.2991 97C53.2857 97.24 52.2057 97.3867 51.0591 97.44C49.9124 97.52 48.8057 97.5333 47.7391 97.48C47.6057 97.08 47.5257 96.64 47.4991 96.16C47.4457 95.68 47.4324 95.2 47.4591 94.72C47.4857 94.24 47.5257 93.7733 47.5791 93.32C47.6324 92.8667 47.6857 92.4533 47.7391 92.08C48.1924 92.1067 48.7257 92.1067 49.3391 92.08C49.9257 92.0533 50.5124 91.9733 51.0991 91.84C51.6857 91.7333 52.2324 91.5733 52.7391 91.36C53.2457 91.1467 53.6324 90.8533 53.8991 90.48C53.9257 89.36 53.9391 88.1467 53.9391 86.84C53.9391 85.5333 53.9391 84.2133 53.9391 82.88C53.9391 81.5467 53.9391 80.24 53.9391 78.96ZM53.8591 64.28C53.8057 63.4267 53.7924 62.3867 53.8191 61.16L59.1391 61.28C59.1391 61.44 59.1391 61.7333 59.1391 62.16C59.1657 62.56 59.1791 63.0133 59.1791 63.52C59.2057 64 59.2191 64.5067 59.2191 65.04C59.2457 65.5467 59.2591 66 59.2591 66.4C59.1524 66.56 58.9124 66.6667 58.5391 66.72C58.1657 66.7733 57.7257 66.8 57.2191 66.8C56.7391 66.7733 56.2057 66.7467 55.6191 66.72C55.0324 66.6667 54.4857 66.6533 53.9791 66.68C53.9791 65.9067 53.9391 65.1067 53.8591 64.28ZM68.2231 80.08C67.6365 80.0533 67.2098 80.0133 66.9431 79.96V80.68C66.9698 81.48 66.9965 82.1333 67.0231 82.64C67.0765 83.1467 67.2498 83.64 67.5431 84.12C67.8631 84.7333 68.3165 85.1867 68.9031 85.48C69.4898 85.7733 70.0631 85.8667 70.6231 85.76C71.1831 85.6533 71.6498 85.3333 72.0231 84.8C72.4231 84.24 72.5965 83.4133 72.5431 82.32C72.8098 82.3467 73.1698 82.36 73.6231 82.36C74.0765 82.3333 74.5431 82.3067 75.0231 82.28C75.5298 82.2533 76.0098 82.2533 76.4631 82.28C76.9165 82.28 77.2898 82.32 77.5831 82.4C77.5298 83.0933 77.4765 83.7733 77.4231 84.44C77.3698 85.1067 77.3031 85.7333 77.2231 86.32C77.1431 86.88 77.0365 87.3733 76.9031 87.8C76.7965 88.2 76.6498 88.48 76.4631 88.64C76.0098 89.28 75.4231 89.7333 74.7031 90C73.9831 90.2667 73.1965 90.4267 72.3431 90.48C71.4898 90.5333 70.6098 90.5333 69.7031 90.48C68.8231 90.4267 68.0098 90.4 67.2631 90.4C66.5165 90.2933 65.8231 90.0533 65.1831 89.68C64.4631 89.1733 63.8631 88.52 63.3831 87.72C62.9031 86.8933 62.5165 86 62.2231 85.04C61.9298 84.0533 61.7298 83.0133 61.6231 81.92C61.5165 80.8267 61.4898 79.7333 61.5431 78.64C61.6231 77.6533 61.7031 76.7067 61.7831 75.8C61.8898 74.8667 62.1031 73.96 62.4231 73.08C62.7698 72.3067 63.3031 71.6533 64.0231 71.12C64.7431 70.56 65.5565 70.1467 66.4631 69.88C67.3698 69.5867 68.3298 69.4267 69.3431 69.4C70.3565 69.3733 71.3431 69.48 72.3031 69.72C73.5298 69.9333 74.5165 70.36 75.2631 71C76.0098 71.64 76.5698 72.4133 76.9431 73.32C77.3431 74.2267 77.5831 75.2267 77.6631 76.32C77.7431 77.4133 77.7431 78.52 77.6631 79.64C77.4765 79.6933 77.1165 79.7467 76.5831 79.8C76.0765 79.8533 75.4631 79.9067 74.7431 79.96C74.0498 80.0133 73.3031 80.0533 72.5031 80.08C71.7031 80.1067 70.9298 80.12 70.1831 80.12C69.4631 80.12 68.8098 80.1067 68.2231 80.08ZM72.9031 74.84C72.6365 74.36 72.2631 74 71.7831 73.76C71.5698 73.6267 71.3565 73.5333 71.1431 73.48C70.9298 73.4 70.6765 73.36 70.3831 73.36C69.7431 73.36 69.2231 73.4267 68.8231 73.56C68.4231 73.6933 68.1031 73.88 67.8631 74.12C67.6231 74.36 67.4365 74.64 67.3031 74.96C67.1965 75.28 67.1165 75.6133 67.0631 75.96C67.0098 76.2533 66.9831 76.4667 66.9831 76.6C67.0098 76.7067 67.1431 76.7867 67.3831 76.84C67.6231 76.8667 67.9965 76.88 68.5031 76.88C69.0365 76.8533 69.8098 76.84 70.8231 76.84C71.5165 76.84 72.0365 76.8533 72.3831 76.88C72.7298 76.9067 72.9698 76.92 73.1031 76.92C73.2631 76.8933 73.3431 76.8533 73.3431 76.8C73.3431 76.72 73.3431 76.5733 73.3431 76.36C73.3431 75.8267 73.1965 75.32 72.9031 74.84ZM94.1966 82.2C94.6499 82.2 95.0232 82.24 95.3166 82.32C95.2632 83.0133 95.2099 83.6933 95.1566 84.36C95.1032 85.0267 95.0366 85.6533 94.9566 86.24C94.8766 86.8 94.7699 87.2933 94.6366 87.72C94.5299 88.12 94.3832 88.4133 94.1966 88.6C93.7432 89.24 93.1432 89.6933 92.3966 89.96C91.6766 90.2267 90.8899 90.3867 90.0366 90.44C89.1832 90.52 88.3032 90.52 87.3966 90.44C86.4899 90.3867 85.6632 90.36 84.9166 90.36C83.5566 90.12 82.4099 89.5333 81.4766 88.6C80.7566 87.96 80.2632 87.16 79.9966 86.2C79.7299 85.24 79.5699 84.24 79.5166 83.2C79.4632 82.1333 79.4499 81.0667 79.4766 80C79.5299 78.9333 79.5032 77.96 79.3966 77.08C79.3966 76.12 79.4766 75.16 79.6366 74.2C79.6632 73.9067 79.7566 73.5067 79.9166 73C80.0766 72.4933 80.1966 72.1067 80.2766 71.84C80.4632 71.44 80.7566 71.0933 81.1566 70.8C81.5832 70.5067 82.0632 70.2667 82.5966 70.08C83.1566 69.8667 83.7432 69.72 84.3566 69.64C84.9966 69.56 85.6366 69.52 86.2766 69.52C86.8099 69.5733 87.3166 69.5867 87.7966 69.56C88.3032 69.5067 88.8366 69.5067 89.3966 69.56C90.2499 69.6133 91.0632 69.7733 91.8366 70.04C92.6099 70.3067 93.2766 70.7067 93.8366 71.24C94.2099 71.5067 94.4899 71.8667 94.6766 72.32C94.8899 72.7733 95.0499 73.3067 95.1566 73.92C95.2632 74.5333 95.3166 75.2267 95.3166 76C95.3432 76.7467 95.3699 77.56 95.3966 78.44C95.0499 78.52 94.6499 78.56 94.1966 78.56C93.7699 78.56 93.3166 78.5467 92.8366 78.52C92.3832 78.4933 91.9299 78.4533 91.4766 78.4C91.0499 78.3467 90.6632 78.2933 90.3166 78.24C90.1832 77.3067 89.7966 76.5867 89.1566 76.08C88.5166 75.5467 87.6766 75.4133 86.6366 75.68C86.0766 75.84 85.6232 76.1333 85.2766 76.56C85.1166 76.6667 84.9966 76.9333 84.9166 77.36C84.8099 78.1867 84.7566 79.0267 84.7566 79.88C84.7566 80.7333 84.7299 81.6267 84.6766 82.56C84.6232 83.1733 84.7699 83.6533 85.1166 84C85.4899 84.3467 85.9299 84.5867 86.4366 84.72C86.9432 84.8267 87.4632 84.8533 87.9966 84.8C88.5299 84.72 88.9566 84.5733 89.2766 84.36C89.5432 84.1733 89.7432 83.8667 89.8766 83.44C90.0366 82.9867 90.1566 82.5867 90.2366 82.24C90.5032 82.2667 90.8632 82.28 91.3166 82.28C91.7699 82.2533 92.2499 82.2267 92.7566 82.2C93.2632 82.1733 93.7432 82.1733 94.1966 82.2ZM103.412 62.68C103.865 62.7067 104.319 62.6933 104.772 62.64V68C104.772 68.3467 104.772 68.7067 104.772 69.08C104.799 69.4533 104.812 69.84 104.812 70.24C105.639 70.2133 106.505 70.1733 107.412 70.12C108.345 70.0667 109.492 70 110.852 69.92C111.039 70.1333 111.145 70.4533 111.172 70.88C111.199 71.28 111.199 71.72 111.172 72.2C111.145 72.68 111.105 73.1733 111.052 73.68C111.025 74.16 111.039 74.5733 111.092 74.92H104.892C104.892 76.36 104.892 77.7733 104.892 79.16C104.892 80.52 104.905 81.8 104.932 83C105.199 83.3733 105.585 83.6667 106.092 83.88C106.599 84.0933 107.145 84.2667 107.732 84.4C108.319 84.5067 108.905 84.5733 109.492 84.6C110.105 84.6267 110.639 84.6267 111.092 84.6C111.145 84.9733 111.199 85.3867 111.252 85.84C111.305 86.2933 111.345 86.76 111.372 87.24C111.399 87.72 111.385 88.2 111.332 88.68C111.305 89.16 111.225 89.6 111.092 90C110.025 90.0533 108.919 90.0533 107.772 90C106.625 89.92 105.545 89.76 104.532 89.52C103.519 89.28 102.612 88.92 101.812 88.44C101.039 87.96 100.479 87.3067 100.132 86.48C99.7852 84.4267 99.5852 82.4933 99.5319 80.68C99.4785 78.84 99.4652 76.9467 99.4919 75C99.0652 75.0267 98.6119 75.04 98.1319 75.04C97.6785 75.04 97.1719 75.04 96.6119 75.04L96.7319 70.16C97.2652 70.1867 97.7585 70.2 98.2119 70.2C98.6919 70.2 99.1452 70.2 99.5719 70.2C99.5719 69.6133 99.5585 68.9867 99.5319 68.32C99.5052 67.6267 99.4919 66.9333 99.4919 66.24C99.4919 65.5467 99.4919 64.88 99.4919 64.24C99.5185 63.6 99.5585 63.0267 99.6119 62.52C99.9585 62.4667 100.332 62.4533 100.732 62.48C101.159 62.5067 101.599 62.5467 102.052 62.6C102.505 62.6267 102.959 62.6533 103.412 62.68ZM126.761 62C127.667 62 128.561 62.04 129.441 62.12L129.481 62.16C129.081 66.7733 128.627 71.3733 128.121 75.96C127.641 80.5467 127.214 85.16 126.841 89.8C126.654 89.8533 126.441 89.88 126.201 89.88C125.987 89.88 125.747 89.88 125.481 89.88H124.041H123.561C123.321 89.56 123.107 89.1067 122.921 88.52C122.761 87.9067 122.587 87.2667 122.401 86.6C122.214 85.9067 122.027 85.24 121.841 84.6C121.654 83.96 121.441 83.4533 121.201 83.08H121.161C120.921 83.32 120.707 83.7467 120.521 84.36C120.361 84.9467 120.201 85.5867 120.041 86.28C119.881 86.9467 119.721 87.6 119.561 88.24C119.401 88.88 119.214 89.3733 119.001 89.72C118.654 89.7733 118.334 89.8267 118.041 89.88C117.747 89.9067 117.414 89.92 117.041 89.92C116.614 89.92 116.107 89.88 115.521 89.8H115.481C114.841 85.24 114.214 80.6533 113.601 76.04C112.987 71.4267 112.641 66.8133 112.561 62.2V62.16C112.961 62.1067 113.374 62.0667 113.801 62.04C114.254 61.9867 114.707 61.96 115.161 61.96C115.694 61.96 116.227 61.9733 116.761 62C117.294 62.0267 117.801 62.0533 118.281 62.08C118.387 63.2533 118.441 64.5733 118.441 66.04C118.441 67.5067 118.441 68.9867 118.441 70.48C118.441 71.9733 118.481 73.44 118.561 74.88C118.641 76.32 118.827 77.6133 119.121 78.76C119.467 77.56 119.774 76.3867 120.041 75.24C120.334 74.0667 120.627 72.88 120.921 71.68C120.947 71.6267 120.961 71.5867 120.961 71.56C120.961 71.5333 120.974 71.5067 121.001 71.48C121.107 71.56 121.254 71.9467 121.441 72.64C121.654 73.3067 121.854 74.0667 122.041 74.92C122.254 75.7733 122.454 76.6133 122.641 77.44C122.854 78.2667 123.041 78.88 123.201 79.28C123.307 78.1333 123.387 76.8267 123.441 75.36C123.494 73.8667 123.534 72.3467 123.561 70.8C123.614 69.2533 123.654 67.7467 123.681 66.28C123.734 64.7867 123.814 63.4533 123.921 62.28V62.24C124.374 62.1333 124.841 62.0667 125.321 62.04C125.801 62.0133 126.281 62 126.761 62ZM134.354 69.88C134.968 69.9067 135.701 69.9067 136.554 69.88H137.234V70C137.208 73.2267 137.141 76.52 137.034 79.88C136.954 83.24 137.008 86.5333 137.194 89.76C137.061 89.92 136.728 90 136.194 90C135.661 90.0267 135.074 90.0267 134.434 90C133.821 90 133.234 89.9867 132.674 89.96C132.114 89.9333 131.741 89.9467 131.554 90C131.688 88.32 131.741 86.6133 131.714 84.88C131.714 83.1467 131.688 81.4267 131.634 79.72C131.581 78.0133 131.554 76.3333 131.554 74.68C131.554 73 131.634 71.3733 131.794 69.8V69.76C131.901 69.7333 132.074 69.7333 132.314 69.76C132.581 69.7867 132.781 69.8 132.914 69.8C133.261 69.8267 133.741 69.8533 134.354 69.88ZM131.674 64.28C131.621 63.4267 131.608 62.3867 131.634 61.16L137.074 61.28C137.074 61.44 137.074 61.7333 137.074 62.16C137.101 62.56 137.114 63.0133 137.114 63.52C137.141 64 137.154 64.5067 137.154 65.04C137.181 65.5467 137.194 66 137.194 66.4C137.088 66.56 136.834 66.6667 136.434 66.72C136.061 66.7733 135.608 66.8 135.074 66.8C134.568 66.7733 134.021 66.7467 133.434 66.72C132.848 66.6667 132.301 66.6533 131.794 66.68C131.794 65.9067 131.754 65.1067 131.674 64.28ZM155.156 72.28C155.689 73.4267 155.956 74.72 155.956 76.16C155.102 76.2933 154.156 76.3733 153.116 76.4C152.102 76.4267 151.142 76.3467 150.236 76.16C150.316 75.84 150.276 75.52 150.116 75.2C149.982 74.88 149.769 74.6 149.476 74.36C149.209 74.12 148.889 73.9467 148.516 73.84C148.169 73.7067 147.822 73.6533 147.476 73.68C146.862 73.7867 146.396 74.0267 146.076 74.4C145.782 74.7467 145.636 75.1333 145.636 75.56C145.636 75.9867 145.796 76.4133 146.116 76.84C146.436 77.2667 146.902 77.5867 147.516 77.8C149.009 78.0133 150.409 78.3067 151.716 78.68C153.022 79.0267 153.982 79.6 154.596 80.4C155.182 81.36 155.542 82.3467 155.676 83.36C155.809 84.3467 155.622 85.5733 155.116 87.04C154.502 88.3467 153.542 89.28 152.236 89.84C150.929 90.4 149.502 90.6667 147.956 90.64C146.596 90.6933 145.369 90.5733 144.276 90.28C143.182 89.9867 142.236 89.5467 141.436 88.96C140.662 88.3733 140.049 87.6533 139.596 86.8C139.169 85.9467 138.956 84.9867 138.956 83.92V83.8V83.72C139.836 83.6133 140.836 83.5867 141.956 83.64C143.076 83.6667 144.049 83.68 144.876 83.68C144.902 84.2933 145.182 84.8 145.716 85.2C146.276 85.5733 146.862 85.8 147.476 85.88C148.089 85.9333 148.649 85.8133 149.156 85.52C149.662 85.2267 149.902 84.6933 149.876 83.92C149.956 83.28 149.809 82.8 149.436 82.48C149.062 82.16 148.569 81.92 147.956 81.76C147.342 81.5733 146.649 81.4133 145.876 81.28C145.102 81.1467 144.342 80.92 143.596 80.6C142.102 80.0933 141.009 79.3067 140.316 78.24C139.649 77.1467 139.329 76.0267 139.356 74.88C139.409 73.7067 139.782 72.6267 140.476 71.64C141.196 70.6533 142.209 69.9867 143.516 69.64C144.022 69.5067 144.636 69.4 145.356 69.32C146.102 69.24 146.889 69.2 147.716 69.2C148.542 69.2 149.369 69.2533 150.196 69.36C151.022 69.44 151.782 69.56 152.476 69.72C153.729 70.2533 154.622 71.1067 155.156 72.28ZM164.043 80.08C163.457 80.0533 163.03 80.0133 162.763 79.96V80.68C162.79 81.48 162.817 82.1333 162.843 82.64C162.897 83.1467 163.07 83.64 163.363 84.12C163.683 84.7333 164.137 85.1867 164.723 85.48C165.31 85.7733 165.883 85.8667 166.443 85.76C167.003 85.6533 167.47 85.3333 167.843 84.8C168.243 84.24 168.417 83.4133 168.363 82.32C168.63 82.3467 168.99 82.36 169.443 82.36C169.897 82.3333 170.363 82.3067 170.843 82.28C171.35 82.2533 171.83 82.2533 172.283 82.28C172.737 82.28 173.11 82.32 173.403 82.4C173.35 83.0933 173.297 83.7733 173.243 84.44C173.19 85.1067 173.123 85.7333 173.043 86.32C172.963 86.88 172.857 87.3733 172.723 87.8C172.617 88.2 172.47 88.48 172.283 88.64C171.83 89.28 171.243 89.7333 170.523 90C169.803 90.2667 169.017 90.4267 168.163 90.48C167.31 90.5333 166.43 90.5333 165.523 90.48C164.643 90.4267 163.83 90.4 163.083 90.4C162.337 90.2933 161.643 90.0533 161.003 89.68C160.283 89.1733 159.683 88.52 159.203 87.72C158.723 86.8933 158.337 86 158.043 85.04C157.75 84.0533 157.55 83.0133 157.443 81.92C157.337 80.8267 157.31 79.7333 157.363 78.64C157.443 77.6533 157.523 76.7067 157.603 75.8C157.71 74.8667 157.923 73.96 158.243 73.08C158.59 72.3067 159.123 71.6533 159.843 71.12C160.563 70.56 161.377 70.1467 162.283 69.88C163.19 69.5867 164.15 69.4267 165.163 69.4C166.177 69.3733 167.163 69.48 168.123 69.72C169.35 69.9333 170.337 70.36 171.083 71C171.83 71.64 172.39 72.4133 172.763 73.32C173.163 74.2267 173.403 75.2267 173.483 76.32C173.563 77.4133 173.563 78.52 173.483 79.64C173.297 79.6933 172.937 79.7467 172.403 79.8C171.897 79.8533 171.283 79.9067 170.563 79.96C169.87 80.0133 169.123 80.0533 168.323 80.08C167.523 80.1067 166.75 80.12 166.003 80.12C165.283 80.12 164.63 80.1067 164.043 80.08ZM168.723 74.84C168.457 74.36 168.083 74 167.603 73.76C167.39 73.6267 167.177 73.5333 166.963 73.48C166.75 73.4 166.497 73.36 166.203 73.36C165.563 73.36 165.043 73.4267 164.643 73.56C164.243 73.6933 163.923 73.88 163.683 74.12C163.443 74.36 163.257 74.64 163.123 74.96C163.017 75.28 162.937 75.6133 162.883 75.96C162.83 76.2533 162.803 76.4667 162.803 76.6C162.83 76.7067 162.963 76.7867 163.203 76.84C163.443 76.8667 163.817 76.88 164.323 76.88C164.857 76.8533 165.63 76.84 166.643 76.84C167.337 76.84 167.857 76.8533 168.203 76.88C168.55 76.9067 168.79 76.92 168.923 76.92C169.083 76.8933 169.163 76.8533 169.163 76.8C169.163 76.72 169.163 76.5733 169.163 76.36C169.163 75.8267 169.017 75.32 168.723 74.84Z" fill="black"/>
<path d="M45.5245 11.1969C45.3593 11.3625 45.163 11.4938 44.9469 11.5835C44.7308 11.6731 44.4991 11.7192 44.2652 11.7192C44.0313 11.7192 43.7996 11.6731 43.5835 11.5835C43.3674 11.4938 43.1711 11.3625 43.0059 11.1969C42.5175 10.707 41.9369 10.3186 41.2976 10.0541C40.6584 9.78968 39.9731 9.65442 39.2813 9.65616C37.8206 9.65616 36.515 10.2422 35.5567 11.1969C35.3913 11.3623 35.195 11.4935 34.9789 11.583C34.7628 11.6725 34.5312 11.7186 34.2973 11.7186C33.825 11.7186 33.372 11.5309 33.038 11.1969C32.8726 11.0316 32.7414 10.8352 32.6519 10.6191C32.5624 10.4031 32.5163 10.1715 32.5163 9.93759C32.5163 9.46525 32.704 9.01225 33.038 8.67825C33.8573 7.85778 34.8306 7.20713 35.902 6.76361C36.9733 6.32008 38.1217 6.09241 39.2813 6.09366C40.4408 6.09241 41.5892 6.32008 42.6605 6.76361C43.7319 7.20713 44.7052 7.85778 45.5245 8.67825C45.8585 9.01228 46.0461 9.46527 46.0461 9.93759C46.0461 10.4099 45.8585 10.8629 45.5245 11.1969ZM24.8425 9.49584C23.2694 10.4158 21.8464 11.5709 20.6227 12.9212L20.6209 12.923C19.394 14.2792 18.3829 15.8159 17.623 17.4794C16.8435 19.1867 16.3414 21.0075 16.1357 22.873C16.11 23.1055 16.1303 23.3408 16.1955 23.5655C16.2607 23.7902 16.3695 23.9998 16.5157 24.1824C16.662 24.365 16.8427 24.517 17.0477 24.6298C17.2526 24.7425 17.4778 24.8138 17.7103 24.8395C17.9428 24.8653 18.1781 24.8449 18.4028 24.7797C18.6275 24.7145 18.8371 24.6057 19.0197 24.4595C19.2023 24.3133 19.3543 24.1325 19.4671 23.9276C19.5798 23.7226 19.6511 23.4974 19.6768 23.2649C19.8418 21.7753 20.2428 20.3214 20.8649 18.9578C22.086 16.2851 24.1029 14.0549 26.6397 12.5721C26.8417 12.4541 27.0185 12.2974 27.1599 12.1111C27.3014 11.9248 27.4048 11.7124 27.4641 11.4861C27.5235 11.2599 27.5377 11.0241 27.506 10.7923C27.4743 10.5606 27.3972 10.3373 27.2792 10.1353C27.1612 9.93333 27.0046 9.75656 26.8182 9.61511C26.6319 9.47366 26.4195 9.37029 26.1933 9.31091C25.7363 9.19099 25.2504 9.25751 24.8425 9.49584ZM51.75 29.3906C51.75 28.9182 51.9377 28.4651 52.2717 28.1311C52.6058 27.797 53.0588 27.6094 53.5313 27.6094C54.0037 27.6094 54.4568 27.797 54.7908 28.1311C55.1249 28.4651 55.3125 28.9182 55.3125 29.3906C55.3101 30.9977 54.6861 32.5414 53.5712 33.6988C52.4563 34.8562 50.9369 35.5375 49.3311 35.6001C49.7283 36.4177 49.9688 37.3261 49.9688 38.2969C49.9688 38.7693 49.7811 39.2224 49.4471 39.5564C49.113 39.8905 48.6599 40.0781 48.1875 40.0781C47.7151 40.0781 47.262 39.8905 46.928 39.5564C46.5939 39.2224 46.4063 38.7693 46.4063 38.2969C46.4053 37.5885 46.1235 36.9095 45.6227 36.4086C45.1218 35.9077 44.4427 35.6259 43.7344 35.625H32.7227C32.2503 35.625 31.7972 35.4373 31.4632 35.1033C31.1291 34.7692 30.9415 34.3162 30.9415 33.8438C30.9415 33.3713 31.1291 32.9183 31.4632 32.5842C31.7972 32.2502 32.2503 32.0625 32.7227 32.0625H36.6094C37.3176 32.0611 37.9964 31.7791 38.4971 31.2784C38.9979 30.7776 39.2799 30.0988 39.2813 29.3906C39.2813 28.9182 39.4689 28.4651 39.803 28.1311C40.137 27.797 40.5901 27.6094 41.0625 27.6094C41.5349 27.6094 41.988 27.797 42.322 28.1311C42.6561 28.4651 42.8438 28.9182 42.8438 29.3906C42.8438 30.3507 42.6086 31.2502 42.2203 32.0625H49.0781C49.7863 32.0611 50.4651 31.7791 50.9659 31.2784C51.4666 30.7776 51.7486 30.0988 51.75 29.3906Z" fill="#A088E3"/>
<path d="M66 27.9852C66 26.8666 65.9198 25.7836 65.7969 24.7327C64.1813 10.8068 52.3699 0.0035625 38.0148 0H35.8203C21.0056 0.00178125 9.00178 12.0056 9 26.8203C9 28.2105 9.27381 29.587 9.80581 30.8714C10.3378 32.1557 11.1176 33.3227 12.1006 34.3057C14.0858 36.291 16.7784 37.4063 19.586 37.4063H21.7965C22.3956 39.9404 23.8322 42.1983 25.8739 43.8146C27.9156 45.4309 30.4429 46.311 33.0469 46.3125H45.7009L51.2512 51.8629C51.4381 52.0495 51.676 52.1765 51.935 52.228C52.194 52.2794 52.4624 52.253 52.7064 52.152C52.9504 52.0509 53.1589 51.8799 53.3057 51.6604C53.4525 51.4409 53.531 51.1829 53.5312 50.9188V46.1647C56.2693 45.8237 58.8491 44.6941 60.9567 42.9132C63.0642 41.1324 64.6085 38.7772 65.4015 36.1344C65.6562 35.283 65.8023 34.3853 65.8949 33.4715L65.9002 33.4572C65.9501 33.2933 66 33.1313 66 32.9531C66 32.8445 65.9929 32.7358 65.9858 32.6289L65.9733 32.4241C65.9733 32.3671 65.9804 32.3119 65.9858 32.2584C65.9929 32.1925 66 32.1284 66 32.0625V27.9852ZM61.9886 35.1173C61.331 37.3222 59.9793 39.2559 58.1347 40.6311C56.29 42.0062 54.0508 42.7494 51.75 42.75H33.0469C31.0479 42.7498 29.1212 42.0024 27.6451 40.6544C26.1689 39.3065 25.25 37.4554 25.0687 35.4647L25.058 35.3507C25.1175 33.0372 26.0799 30.8389 27.7392 29.2258C29.3986 27.6127 31.6233 26.7129 33.9375 26.7188C34.4099 26.7188 34.863 26.5311 35.197 26.197C35.5311 25.863 35.7188 25.4099 35.7188 24.9375C35.7188 24.4651 35.5311 24.012 35.197 23.678C34.863 23.3439 34.4099 23.1563 33.9375 23.1563C31.8454 23.1535 29.7866 23.6798 27.9525 24.6863C27.6016 23.8997 27.1117 23.1828 26.5061 22.5702C26.1721 22.2362 25.7191 22.0486 25.2468 22.0486C24.7744 22.0486 24.3214 22.2362 23.9874 22.5702C23.6534 22.9042 23.4658 23.3572 23.4658 23.8296C23.4658 24.3019 23.6534 24.7549 23.9874 25.0889C24.4933 25.5966 24.8371 26.2467 24.9671 26.9753C23.1551 28.8557 21.981 31.2587 21.6112 33.8438H19.586C18.6632 33.8451 17.7492 33.664 16.8967 33.311C16.0441 32.9579 15.2697 32.4398 14.6181 31.7864C13.965 31.135 13.4472 30.3609 13.0944 29.5086C12.7416 28.6563 12.5609 27.7427 12.5625 26.8203C12.5625 20.3918 15.1631 14.5884 19.374 10.374C21.5311 8.21072 24.0946 6.49525 26.9171 5.32627C29.7396 4.1573 32.7653 3.55788 35.8203 3.5625H38.0148C49.9313 3.55894 59.828 12.1125 61.9744 23.4038C60.0115 21.4864 57.5046 20.2217 54.7959 19.7826C55.6919 18.1403 56.2031 16.2539 56.2031 14.25C56.2031 13.7776 56.0155 13.3245 55.6814 12.9905C55.3474 12.6564 54.8943 12.4688 54.4219 12.4688C53.9495 12.4688 53.4964 12.6564 53.1623 12.9905C52.8283 13.3245 52.6406 13.7776 52.6406 14.25C52.6425 15.3029 52.436 16.3458 52.0331 17.3185C51.6302 18.2913 51.0388 19.1747 50.2929 19.9179C49.5497 20.6638 48.6663 21.2552 47.6935 21.6581C46.7208 22.061 45.6779 22.2675 44.625 22.2656C44.1526 22.2656 43.6995 22.4533 43.3655 22.7873C43.0314 23.1214 42.8438 23.5745 42.8438 24.0469C42.8438 24.5193 43.0314 24.9724 43.3655 25.3064C43.6995 25.6405 44.1526 25.8281 44.625 25.8281C47.3788 25.8298 50.0423 24.8453 52.133 23.0529L52.1615 23.0618C52.3155 23.1173 52.4771 23.1492 52.6406 23.1563C55.3517 23.1563 57.7902 24.2499 59.5679 26.0258C61.2747 27.7333 62.2876 30.013 62.4108 32.4241C62.3855 33.3362 62.2436 34.2413 61.9886 35.1173Z" fill="#A088E3"/>
</svg>
